<?xml version="1.0" encoding="UTF-8"?>
<svg width="250px" height="204px" viewBox="0 0 250 204" version="1.1" xmlns="http://www.w3.org/2000/svg" xmlns:xlink="http://www.w3.org/1999/xlink">
    <!-- Generator: Sketch 53.2 (72643) - https://sketchapp.com -->
    <title>Twitter_Logo_Blue</title>
    <desc>Created with Sketch.</desc>
    <g id="Page-1" stroke="none" stroke-width="1" fill="none" fill-rule="evenodd">
        <g id="Twitter_Logo_Blue" transform="translate(-25.000000, -48.000000)">
            <rect id="Rectangle" x="0" y="0" width="300" height="300"></rect>
            <path d="M103.62,251.13969 C197.96,251.13969 249.56,172.97969 249.56,105.19969 C249.56,102.97969 249.56,100.76969 249.41,98.5696903 C259.448314,91.3087989 268.113555,82.3184843 275,72.0196903 C265.638791,76.167708 255.708293,78.8879768 245.54,80.0896903 C256.24744,73.6795109 264.261235,63.5974102 268.09,51.7196903 C258.021575,57.6942435 247.006461,61.9048105 235.52,64.1696903 C219.620828,47.2636331 194.357194,43.1258162 173.895493,54.0764896 C153.433792,65.027163 142.86275,88.3429476 148.11,110.94969 C106.868957,108.882186 68.4447578,89.402923 42.4,57.3596903 C28.7862276,80.7961376 35.7398788,110.778285 58.28,125.82969 C50.117412,125.587766 42.1327937,123.385822 35,119.40969 C35,119.61969 35,119.83969 35,120.05969 C35.0066813,144.47562 52.2175149,165.505042 76.15,170.33969 C68.598696,172.399091 60.6758059,172.700133 52.99,171.21969 C59.7094793,192.113919 78.9657456,206.427529 100.91,206.83969 C82.7473504,221.11401 60.3105951,228.862968 37.21,228.83969 C33.1290357,228.831856 29.0520407,228.584765 25,228.09969 C48.4563595,243.152456 75.749134,251.13686 103.62,251.09969" id="Path" fill="#1DA1F2" fill-rule="nonzero"></path>
        </g>
    </g>
</svg>
